<svg width="1858" height="1858" viewBox="0 0 1858 1858" fill="none" xmlns="http://www.w3.org/2000/svg">
<g clip-path="url(#clip0_311_2)">
<path d="M436.219 -880.689L-889.821 1416.08L-753.845 1494.59L572.195 -802.183L436.219 -880.689Z" fill="white" fill-opacity="0.19"/>
<path d="M980.125 -566.659L-345.915 1730.11L-209.939 1808.62L1116.1 -488.153L980.125 -566.659Z" fill="white" fill-opacity="0.19"/>
<path d="M1524.03 -252.639L197.99 2044.13L333.967 2122.64L1660.01 -174.133L1524.03 -252.639Z" fill="white" fill-opacity="0.19"/>
<path d="M2339.89 218.401L1013.85 2515.17L1149.83 2593.68L2475.87 296.907L2339.89 218.401Z" fill="white" fill-opacity="0.19"/>
<path d="M708.171 -723.679L-617.869 1573.09L-481.893 1651.6L844.147 -645.173L708.171 -723.679Z" fill="white" fill-opacity="0.19"/>
<path d="M1252.08 -409.649L-73.9619 1887.12L62.0144 1965.63L1388.05 -331.143L1252.08 -409.649Z" fill="white" fill-opacity="0.19"/>
<path d="M2067.94 61.3912L741.897 2358.16L877.874 2436.67L2203.91 139.897L2067.94 61.3912Z" fill="white" fill-opacity="0.19"/>
<path d="M1795.98 -95.6286L469.944 2201.14L605.921 2279.65L1931.96 -17.1225L1795.98 -95.6286Z" fill="white" fill-opacity="0.19"/>
<path d="M2611.84 375.411L1285.8 2672.18L1421.78 2750.69L2747.82 453.917L2611.84 375.411Z" fill="white" fill-opacity="0.19"/>
</g>
<defs>
<clipPath id="clip0_311_2">
<rect width="1858" height="1858" fill="white"/>
</clipPath>
</defs>
</svg>
